<svg xmlns="http://www.w3.org/2000/svg" width="1128" height="1128" viewBox="0 0 1128 1128">
  <defs>
    <style>
      .cls-1, .cls-2 {
        fill-rule: evenodd;
      }

      .cls-1 {
        fill: currentColor;
      }

      .cls-2 {
        fill: #3794ff;
      }
    </style>
  </defs>
  <path id="Color_Fill_1" data-name="Color Fill 1" class="cls-1" d="M575,193q-0.5,67.994-1,136a12.169,12.169,0,0,1-10-1q-0.5-67.994-1-136c-81.285-6.384-126.383,34.573-172,67-15.015,10.673-31.715,20.71-43,35-9.93,12.575-15.527,26.476-24,41-12.633,21.654-40.987,49.986-29,85l-3,5-9-2c-4.376-24.424,1.639-39.568,8-58-41.754-9.639-66.072-42.344-37-83-6.031-7.775-6.733-17.013-9-29-7.755-41.013,24.559-51.267,40-72,7.5-10.072,7.736-24.273,13-37,11.368-27.482,32.855-32.662,61-44,42.144-16.976,66.727-57.294,110-76,114.387-49.447,216.166-2.3,288,49,25.291,18.063,70.22,46.873,87,72l20,49c9.489,14.9,23.507,24.183,29,44,11.1,40.034-29.9,111.454-58,102l-3-2c2.066-14.463,27.959-22.258,36-33,29.515-39.429,11.717-68.881-10-98-12.515-16.78-15.221-43.547-28-60-12.9-16.612-34.923-28.477-52-41-49.182-36.066-89.214-71.922-162-86C545.294,6.325,475.83,28.841,436,57L388,98c-16.831,11.991-42.945,14.743-60,27-18.469,13.273-16.28,33.479-28,54-9.33,16.336-28.871,23.8-38,40-19.531,34.658,10.464,67.023,23,88l-1,5-7,2c-6.516-6.3-11.2-12.884-17-20h-1c-11.787,34.637,4.512,54.978,39,60l39-66c13.452-17.043,33.161-29.229,51-42,66.03-47.27,131.54-89.583,244-55,33.253,10.226,66.506,24.188,93,42,39.792,26.753,75.852,65.9,95,113,12.5,30.735,5.546,66.1-16,82-4.513-.215-5.391-0.708-8-2v-7c35.118-26.007,10.281-76.648-7-103C747.559,252.808,671.573,199.246,575,193Zm-33-73c93.389-1.279,202.121,59.711,249,107,13.182,13.3,46.773,54.962,39,83l-3,5h-4l-4-3c-1.04-91.088-130.161-145.007-205-168-28.366-8.715-69.873-16.174-103-7-37,10.247-70.3,28.678-98,49l-41,35c-16.259,4.537-37.148-34.444-29-54l2-4c5.588,0.3,5.838,1.019,9,3-1.55,21.817,4.377,30.738,14,43l10-10c21.969-10.294,41.469-32.951,63-46,20.459-12.4,45.755-22.65,71-29Zm260,55c7,0.4,5.991,1.13,9,5-2.016,17.851-8.3,28.025-19,37l-7-3v-6C795.8,199.7,794.929,187.211,802,175ZM563,571c-10.459.379-18.883-.466-25-4-0.447-4.484-1.1-5.594,3-8h54a12.169,12.169,0,0,1-1,10l-19,2c0.121,26.834,4.286,61.694-2,85-6.179,22.912-17.831,38.082-22,65-5.243,33.853,19.672,58.8,25,88,9.2,50.395-23.158,72.665-30,110-7.816,42.65,18.693,71.765,27,102,9.268,33.73-5.9,58.18-14,81h43c10.468-18.47,24.743-30.98,30-56,2.295-10.92,4.228-43.54-2-51-4.614-5.527-10.207-4.54-12-14-1.92-10.13,5.1-12.9,7-18,4.038-10.852-3.377-29.157-1-42,7.691-41.565,40.181-72.218,26-129-9.906-39.663-38.961-58.483-50-94l-2,1c-16.3,61.191,13.535,71.5,23,122,9.072,48.4-19.413,70.6-28,102-5.488,20.07,8.742,33.883-2,54-7.848,14.7,24.477,43.52,15,68-0.667,1.33-1.333,2.67-2,4-4.513-.22-5.391-0.71-8-2q-1-12.495-2-25c-4.406-15.14-27.893-50.8-20-75l6-5c4.583-8.261,1.024-22.392,4-30,8.966-22.922,21.188-36.578,26-68,6.087-39.746-21.336-63.343-29-92-8.021-29.991,6.751-53.4,14-74-7.424-3.274-6.85-26.614-3-34,8.1-.341,13.619.295,18,3-0.079,8.14-5,36-5,36,3.6,18.742,21.178,36.156,31,50,14.653,20.653,23.747,44.688,29,75,10.7,61.719-47.054,103.513-28,151,5.052,6.936,17.645,13.536,11,29-1.91,4.446-6.682,3.4-6,11,4.755,53.04-4.131,67.91-24,102v1q60.493-.495,121-1,12.5-40.995,25-82c20.4-60.308,42.054-115.5,66-170,15.738-35.818,31.062-78.158,55-107q-0.5-1-1-2l-28-16c1.064-22.647,7.929-44.654,0-67-8.941-25.2-30.589-38.161-38-65-5.554-20.114,2.514-45.69-5-64-7.787-18.976-25.742-27.2-36-43-10.067-15.5-9.033-40.048-9-66-18.89,16.51-30.366,66.789-15,100,11.04,23.862,34.583,33.193,45,67,7.36,23.884-.027,62.6,8,88,4.212,13.33,14.523,21.985,21,33,16.228,27.6,7.828,65.564-6,89-5.588-.3-5.838-1.019-9-3,2.211-19.56,18.11-34.708,12-61-5.773-24.845-25.029-36.166-31-61-7.1-29.526.566-65.555-9-90-9.767-24.959-33.308-36.437-43-60-6.762-16.44-4.033-44.683-4-67-17.676,11.29-42.046,26.833-73,21-1.189-3.534-3.612-8.641,1-11l25-1c21.817-4.44,43.235-17.131,55-32,9.367-11.838,19.553-27.992,23-45q0.5-35,1-70l3-1c4.112-.586,4.667-0.925,7,3q0.5,16,1,32c0,32.7-6.648,89.666,2,117,6.616,20.912,28.576,30.944,39,49,11.355,19.669,2.6,49.668,9,74,4,15.188,14.1,23.167,22,34,18.525,25.41,21.123,56.029,17,95,27.243,8.678,53.6,31.31,77,46,36.532,22.936,96.84,48.983,109,95q0.495,31.5,1,63c0,16.092,2.42,37.093-2,50-9.11,26.6-63.211,70.21-84,91q-19,19.005-38,38c-25.7,17.96-137.4,14.55-189,12H365c-42.266,0-127.52,7.74-161-3-23.094-7.41-88.429-78.42-105-99-9.274-11.52-21.23-17.349-25-35-7.091-33.2.237-115.062,12-131,28.543-38.672,104.488-70.787,150-94l47-24-18-29c-25.419-65.478,37.074-83.83,52-121,13.215-32.911-14.074-61.914-4-98,12.5-44.763,51.918-62.195,68-105,12.724-33.868,3.3-84.7,19-114,6.091-.658,7.139,0,10,5-12.773,33.952-21.41,127.137-7,164,11.649,29.8,60.567,79.554,26,125-5.588-.3-5.838-1.019-9-3v-1c4.389-22.38,10.192-47.842,0-70l-14-22h-1c-1.017,28.569-15.725,41.766-22,63-6.143,20.79,6.319,37.026,2,59-4.651,23.659-21.169,36.749-26,61-9.3,46.678,32.872,58.005,24,104-5.085,26.364-29.434,44.055-23,79,7.582,41.177,44.614,50.262,57,86,10.3,29.71-10.8,60.832,2,88,12.891,27.37,53,42.67,45,86-1,.33-2,0.67-3,1-1.667.33-3.333,0.67-5,1l-3-3c0.266-43.1-32.247-49.67-45-79-12.761-29.345,7.96-63.825-4-93-13.783-33.622-47.988-42.4-56-84-8.879-46.1,31.789-58.911,23-101-4.447-21.293-19.378-34.326-24-57-8.593-42.153,19.854-60.6,26-90q-2-25-4-50c3.64-19.121,13.992-31.243,20-47,8.129-21.318,2.9-67.048-5-86v2c-20.436,23.945-54.571,58.915-61,94-5.642,30.788,16.6,48.7,8,80-11.286,41.055-78.982,62.207-54,123l17,26h4l43-22,5,3c0.591,4.891.183,5.2-2,9L234,768l2,2c13.175,34.7,41.038,72.239,57,109,30.171,69.481,52.913,144.87,74,223q87.491-.495,175-1c6.921-4.37,10.19-12.44,14-20,30.422-60.34-33.9-97.6-22-163,6.713-36.884,38.654-59.442,30-107-5.609-30.827-31.358-55.055-25-93,4.374-26.1,16.322-40.921,22-63C566.967,631.8,563.015,597.7,563,571Zm96-306c126.366-2.6,132.664,156.917,20,176-65.205,11.044-120.233-60.011-95-121C599.32,282.973,621.941,280.08,659,265Zm1,12c-27.422,11.128-45.819,14.5-60,38-32.847,54.432,12.87,107.836,63,114V415h-2c-22.276-9.978-38.84-14.454-48-37-17.554-43.206,15.375-78.288,51-83V277h-4Zm16,0q0.5,9.5,1,19c69.843,3.927,66.827,105.6-2,119v14C771.626,417.709,770.387,294.1,676,277ZM465,303c28.989-.783,55.4,3.691,72,16q-0.5,3-1,6l-2,3c-12.5-.951-20.48-7.111-31-10-29.641-8.139-53.062,2.234-72,12C411.368,317.921,454.613,307.031,465,303Zm197,4c-19.418,8.681-34.089,14.238-40,36-9.029,33.244,20.091,66.639,54,60C733.645,391.714,730.315,305.083,662,307Zm-292,8,7,3c-0.406,66.451-56.823,87.207-81,131-7.245,13.123-14.8,37.127-11,59,2.62,15.067,7.612,33.325,3,50-8.374,30.278-37.04,40.035-48,68-14.462,36.9,7.011,69.057,11,99l-4,3-5,1c-19.684-30.7-26.25-90.5-5-124,10.336-16.292,29.513-25.1,37-44,11.289-28.5-7.551-72.438,6-106,14.809-36.676,46.241-54.06,67-84,10.886-15.7,11.779-36.618,21-55Zm100,16c20.783-.625,32.261,3.349,44,11v8l-3,1c-7,1.479-15.552-6.429-24-8-26.269-4.884-39.14,11.737-50,23l-8-4v-1C435.455,341.861,452.229,339.187,470,331Zm59,139c16.019-1.415,22.831,3,34,8-0.227-26.527-5.332-119.527,3-135l8,1q0.5,65.493,1,131c7.946-4.895,15.211-4.568,24-5l-3-19,3-2,3-2,6,4c1.206,8.824,5.709,20.71,0,28-4.919,6.281-13.059-.093-21,2l-17,9c-12.8,2.672-18.854-7-27-9H522l-3-5c-4.457-7.745-.971-23.218,5-27l4-1,4,3ZM476,349c8.075,0.19,13.268,2.412,16,8,16.165,16.908-11.23,28.443-26,22l-5-10C461.331,355.6,467.014,353.636,476,349ZM683,481c4.513,0.215,5.391.708,8,2,4.246,24.866-2.242,57.057,6,77,13.338,32.276,42.139,49.2,52,88,9.706,38.193-5.116,85.288,2,127q6,22,12,44,0.5,12,1,24c3.1,5.518,13.129,6.42,10,19-1.619,6.51-8.824,7.393-11,12v19l-10,27-35,41c-13.387,28.634,2.582,66.29-20,88-5.517-.04-5.787.28-8-3v-4c3.521-7.38,9.537-10.7,11-21,2.687-18.91-3.457-42.159,3-58,13.819-33.9,47.647-39.939,48-89-12.148-6.072-15.605-25.811,0-31,0.349-30.395-8.442-46.416-13-73-7.567-44.133,8.806-96.493-6-134-17.457-44.222-52.994-54.881-53-120q0.5-15.5,1-31Q682,483,683,481ZM531,494c8.1-.341,13.619.3,18,3q0.5,1.5,1,3l-4,6c-45.985-.432-73.074,23.512-83,59-5.632,20.134-5.322,35.313-14,50l-7,1-3-3,9-23c12.225-46.993,13.471-71.37,55-89Zm51,1c44.2,0.693,73.3,31.448,83,67q4,24,8,48c8.592,24.84,29.207,36.781,39,59,6.6,14.976,9.456,34.4,8,57q-1,9.5-2,19c3.45,7.356,9.514,5.374,10,19-2.6,4.981-9.173,8.058-11,12q0.5,12.5,1,25c-0.474,17.082-1.657,35.706-6,50-9.225,30.366-32.313,45.707-38,78-4.139,23.5,4.734,44.832,8,63,5.38,29.92-8.541,50.36-13,72-1.683,8.17.614,17.22-2,23h-8q-0.5-1.5-1-3c-8.635-21.18,8.894-44.85,12-62,6.815-37.632-15.812-63.54-7-101,4.827-20.52,16.828-30.913,26-46,15.034-24.731,16.9-59.014,17-99-8.536-3.931-12.827-10.786-10-23,2.729-3.786,5.12-6.225,10-8,2.093-35.088,1.88-64.675-14-86-8.781-11.792-20.835-21.266-27-36-17.661-42.206-6.39-79.416-44-104-11.7-7.649-29-8.037-42-15v-6Zm-19,37c-0.275-10.234-1.3-24.984,2-32l9,2q0.5,15,1,30c85.991-.472,47.376,60.892,66,122,9.885,32.434,32.131,58,53,80q-0.5,3.5-1,7a12.169,12.169,0,0,1-10-1l-18-20c-15.854-20.187-31.311-43.028-38-72-7.487-32.431,6.681-79.135-16-96-23.526-17.493-87.382-9.5-101,9-10.252,13.927-9.157,37.439-16,55-10.547,27.066-43.157,48.5-36,90,4.476,25.957,19.4,38.716,23,66,4.966,37.6-31.724,49.006-25,88,5.383,31.218,28.683,42.8,35,73,7.211,34.475-17.363,50.154-11,84,4.188,22.28,39.429,49.08,33,68l-2,3c-4.513-.22-5.391-0.71-8-2-5.391-25.29-24.822-32.4-32-55-11.075-34.879,14.18-56.376,9-88-5.773-35.244-29.76-45.986-36-81-6.646-37.291,20.362-53.607,25-83,4.39-27.819-18.6-45.581-23-70-7.318-40.606,18.235-62.231,31-84C505.46,576.464,475.677,531.013,563,532Zm35,51,6,1q0.5,1.5,1,3c4.419,10.345,2.415,43.674-2,51-4.513-.215-5.391-0.708-8-2V585Zm-178,3,7,1,2,5c-8.577,21.115-31.158,43.768-26,75,4.348,26.329,25.092,43.578,19,77-4.215,23.127-17.216,37.362-23,58l-3,32-7,2-4-3c-0.452-43.554,18.937-57.3,25-91,5.043-28.035-13.518-44.1-18-65C384.071,640.021,406.257,607.282,420,586ZM895,748c-55.486,108.262-111.157,221.726-144,354q42-.495,84-1c3.325-31.04,17.6-64.17,28-91,22.869-59.025,43.372-115.214,77-163l40-47h-2C961.818,783.368,917.451,757.352,895,748Zm-185,6-3,4v4l2,3,5-1c2.055-1.355,1.609-1.12,3-3q-0.5-2.5-1-5ZM221,773l-78,44c17.1,25.262,37.866,47.562,54,75,36.359,61.835,51.963,134.95,76,210,15.251,0.24,72.818,3.88,81-2q-18-60.99-36-122c-16.894-43.327-35.191-86.674-53-127C257.327,833.625,234.808,780.96,221,773Zm768,35-36,42c-36.31,51.4-57.187,111.053-82,175-9.077,23.39-19.677,50.31-24,77h18l2-3q12-38.49,24-77c20.605-58.764,68.3-174.395,114-203-0.33-.667-0.67-1.333-1-2ZM131,824l-12,8,6,6,20,25,36,61a1118.7,1118.7,0,0,1,43,115q8.5,31.5,17,63c6.56,0.33,15.436.75,19-2-25.832-81.72-46.375-157.251-87-222C162.469,861.216,148.951,832.7,131,824Zm883,2c-54.71,53.932-81.362,126.028-112,205-8.165,21.05-19.294,46.46-22,71h17c48.717-13.35,77.39-59.39,109-91,12.3-12.3,31.41-24.679,37-43q0.495-22,1-44C1044,873.4,1044.24,845.408,1014,826ZM227,1102c-1.5-24.37-12.414-48.03-19-69-20.306-64.673-51.039-156.6-99-192l-4,4c-8.426,4.128-15.222,16.433-18,26L86,976c3.788,17.211,21.417,25.15,31,37C135.237,1035.55,192.266,1101.67,227,1102ZM755,852l-3,5q0.5,2.5,1,5l5,2c2.557-1.632,2.424-1.232,4-4,1.356-4.2-.021-4.89-2-8h-5ZM632,971l-3,4c0.3,6.427,1.4,8.119,5,11,2.557-1.632,2.424-1.232,4-4v-6C636.236,972.238,636.39,972.271,632,971Z"/>
  <path id="Color_Fill_2" data-name="Color Fill 2" class="cls-2" d="M663,320c50.336-1.918,53.718,63.327,12,72-32.738,6.806-52.677-32.815-36-57C644.533,326.976,653.7,324.484,663,320Zm1,12c-28.358,15.483-20.624,55.507,10,48C701.431,373.275,697.77,330.824,664,332Zm3,14c9.643,0.034,13.674,3.664,14,13l-4,7-9,2-7-4q-1-4.5-2-9l4-7Z"/>
</svg>
